%
M48
M72
T01C0.0230
T02C0.0236
T03C0.0320
T04C0.0394
T05C0.0400
T06C0.0433
T07C0.1102
%
T01
X17312Y5343
X17812Y4843
X18812Y5343
X21312Y5843
X19812Y7343
X18812Y8343
X18312Y8843
X23312Y3843
T02
X20312Y4843
X17562Y6593
X16812Y6843
X18312Y6843
X19062Y6843
X16812Y8343
X16062Y8343
X14812Y8843
X14062Y7593
X17812Y9093
X10012Y5883
X9892Y4793
X8042Y5893
X7362Y5903
X19572Y1613
T03
X23312Y1843
X24312Y1843
X25312Y2343
X24312Y2843
X23312Y2843
X25312Y3843
X26312Y3843
X26312Y5343
X25312Y5343
X25312Y6843
X26312Y6843
X26312Y2343
X15812Y2843
X14812Y2843
X13312Y2843
X13312Y1843
X14812Y1843
X15812Y1843
X13812Y4843
X13812Y5843
X10312Y2843
X9312Y2843
X9812Y2093
X5812Y1843
X5812Y2843
T04
X2312Y1843
X2312Y2843
X2312Y3843
X2312Y4843
X2312Y8343
X2312Y9343
X22812Y7843
X22812Y6843
X22812Y5843
T05
X28312Y5343
X29312Y5343
X29312Y4343
X28312Y4343
X28312Y3343
X29312Y3343
X29312Y2343
X28312Y2343
X26812Y9843
X25812Y9843
X24812Y9843
X23812Y9843
X22812Y9843
X21812Y9843
T06
X12012Y6843
X10672Y6843
X9332Y6843
X7992Y6843
X6652Y6843
X5312Y6843
X5982Y8843
X7322Y8843
X8662Y8843
X10002Y8843
X11342Y8843
T07
X2312Y6593
X28812Y8593
M30
